<?xml version="1.0" encoding="UTF-8"?>
<svg id="Layer_1" data-name="Layer 1" xmlns="http://www.w3.org/2000/svg" viewBox="0 0 303.12 49.22">
  <defs>
    <style>
      .cls-1 {
        fill: #fff;
      }
    </style>
  </defs>
  <path class="cls-1" d="M21.73,24.61h-2.95l1.9-7.03h21.09l2.81-10.55H16.45L7.03,42.19H0L11.32,0H53.51l-6.61,24.61h-15.61l12.52,24.61h-8.79l-13.29-24.61Z"/>
  <path class="cls-1" d="M54.35,49.22h-7.03L60.54,0h42.19l-11.32,42.19h-7.03l4.71-17.58h-21.09l1.9-7.03h21.09l2.81-10.55h-28.12l-11.32,42.19Z"/>
  <path class="cls-1" d="M151.95,0l-1.9,7.03h-35.16l-7.52,28.12h35.16l-1.9,7.03h-42.19L109.76,0h42.19Z"/>
  <path class="cls-1" d="M189.84,42.19h-42.19l1.9-7.03h42.19l-1.9,7.03Zm4.71-17.58h-42.19l1.9-7.03h42.19l-1.9,7.03Zm4.71-17.58h-42.19l1.9-7.03h42.19l-1.9,7.03Z"/>
  <path class="cls-1" d="M203.91,42.19h-7.03L208.19,0h7.03l-11.32,42.19Zm10.9-21.09L238.08,0h8.79l-22.36,21.09,11.04,21.09h-8.79l-11.95-21.09Z"/>
  <path class="cls-1" d="M249.61,42.19h-7.03L253.9,0h7.03l-11.32,42.19Z"/>
  <path class="cls-1" d="M287.16,7.03l-11.32,42.19h-7.03l11.32-42.19h-14.06l1.9-7.03h35.16l-1.9,7.03h-14.06Z"/>
</svg>