<?xml version="1.0" standalone="no"?>
<!DOCTYPE svg PUBLIC "-//W3C//DTD SVG 20010904//EN"
 "http://www.w3.org/TR/2001/REC-SVG-20010904/DTD/svg10.dtd">
<svg version="1.0" xmlns="http://www.w3.org/2000/svg"
 width="700.000000pt" height="700.000000pt" viewBox="0 0 700.000000 700.000000"
 preserveAspectRatio="xMidYMid meet">
<metadata>
Created by potrace 1.14, written by Peter Selinger 2001-2017
</metadata>
<g transform="translate(0.000000,700.000000) scale(0.100000,-0.100000)"
fill="#000000" stroke="none">
<path d="M0 3500 l0 -3500 3500 0 3500 0 0 3500 0 3500 -3500 0 -3500 0 0
-3500z m3819 1183 c0 -5 -84 -321 -187 -703 l-187 -695 -453 -3 -454 -2 213
-418 c116 -229 279 -549 361 -709 l150 -293 -250 0 -249 0 -384 710 -383 710
-84 0 c-63 0 -83 3 -79 13 2 6 26 94 53 194 l49 183 609 2 609 3 78 295 c44
162 79 301 79 308 0 10 -166 12 -812 10 l-811 -3 -268 -998 c-147 -549 -270
-1005 -273 -1012 -4 -12 -39 -15 -201 -15 -107 0 -195 3 -195 6 0 8 628 2350
641 2392 l11 32 1209 0 c665 0 1209 -3 1208 -7z m811 3 c0 -5 -637 -2381 -646
-2408 -5 -16 -23 -18 -200 -18 -148 0 -194 3 -194 13 0 6 145 553 322 1215
l323 1202 197 0 c109 0 198 -2 198 -4z m1805 -15 c-11 -10 -300 -283 -643
-606 -343 -323 -621 -592 -619 -599 3 -6 145 -279 316 -606 171 -327 311 -596
311 -597 0 -2 -111 -3 -247 -3 l-248 0 -343 606 c-334 589 -343 607 -325 625
10 10 311 284 668 608 l650 590 250 1 c244 0 249 0 230 -19z"/>
</g>
</svg>
